<svg xmlns="http://www.w3.org/2000/svg" viewBox="0 0 312 192.96"><title>Bluemedia_logo (1)</title><path d="M0 0v42h312v-42h-312zm25.48 33.61h-7.69l-.09-.1a1.6 1.6 0 0 1-1.6-1.93v-21.27a1.61 1.61 0 0 1 1.9-1.9h7.38c6.23 0 8.89 2.62 8.89 6.68a6 6 0 0 1-2.88 5.18 6.18 6.18 0 0 1 4 6c-.08 4.01-3 7.34-9.91 7.34zm95 0h-14.1a1.6 1.6 0 0 1-1.71-1.61v-23.59h5.28v20.65h10.57v4.52zm87.57-12c0 7.42-1.3 12.35-9.9 12.35-8.32 0-9.86-4.93-9.86-12.35v-13.2h5.51v13.09c0 5.36.68 8.35 4.39 8.35s4.36-3 4.36-8.35v-13.09h5.51v13.16zm87.59-9.08h-11.73v6.17h9.09v4.12h-9.13v6.47h11.75v4.32h-15.39a1.61 1.61 0 0 1-1.76-1.92l-.08-.09v-21.47a1.61 1.61 0 0 1 1.9-1.67h15.32v4.08zm-127.52 159.25c0-5.62-1.58-8.42-5.36-8.42h-3.2v17h3.24c3.74-.02 5.32-2.79 5.32-8.58zm-89.47-75.92a2.7 2.7 0 0 0-1.49-.76v-.1l-56.79-17.63a2.74 2.74 0 0 0-1-.3h-.12a2.74 2.74 0 0 0-2.91 2.57v36.22a2.69 2.69 0 0 0 2.82 2.73l.08.08 58-18.16v-.07a2.71 2.71 0 0 0 1.41-4.58zm-56.81 16.42v-28.55l48 14.13zm165.72-23.45a2.69 2.69 0 0 0-2.47-.73h-22l-6.84-21.1a2.72 2.72 0 0 0-5.32 0l-6.75 21.18h-22.44a2.68 2.68 0 0 0-1.51 5.07l18.09 13-7.17 21.6a2.69 2.69 0 0 0 4.48 2.67l17.77-13 18.36 13.11a2.64 2.64 0 0 0 4-3.29l-6.85-21.14 18.59-13.43.08-.07a2.7 2.7 0 0 0-.02-3.87zm-25 15l5.55 17.28-14.68-10.6-14.43 10.64 5.59-17.29-14.71-10.72h18.12l5.53-17.22 5.62 17.23h18.05zm-136.83-81.18h-4.21v6.84h3.74c2.88 0 4.36-1.22 4.36-3.46s-1.48-3.38-3.89-3.38zm-25.73 170.35h312v-42h-312v42zm282.42-33.9h6.48l7.78 25.44h-5.62l-5.4-19.72-5.4 19.72h-5.54zm-60 .14h5.4v25.2h-5.4v-25.2zm-68.3 1.68a1.61 1.61 0 0 1 1.88-1.72h6.74c7.67 0 10.94 4.51 10.94 12.61s-3.24 12.78-10.94 12.78h-6.85a1.61 1.61 0 0 1-1.87-1.6v-22zm-65.77.16a1.61 1.61 0 0 1 1.9-1.67h15.32v4.08h-11.74v6.22h9.17v4.12h-9.17v6.47h11.75v4.32h-15.43a1.61 1.61 0 0 1-1.76-1.92l-.08-.09v-21.52zm-73.11-1.84h6.26l4.39 10.48 1.11 3.46 1.15-3.49 4.28-10.44h6.26v25.2h-5.1v-10.45l.4-8.21-5.15 13.21h-3.67l-5.17-13.13.41 8.13v10.4h-5.22v-25.2zm13.69-143.68c0-2-1.3-3.28-3.89-3.28h-3.52v6.59h4.07a3.09 3.09 0 0 0 3.34-3.31zm223.86 60.9a40 40 0 0 0-24.2 40.43 2.63 2.63 0 1 0 5.23-.47 34.72 34.72 0 0 1 42.35-37 19.95 19.95 0 0 1 12.91 29.29l-.09-.05a10.53 10.53 0 0 1-17 1.68 4.78 4.78 0 0 1 1.58-7.33h.09l.15-.08a1.08 1.08 0 0 1 .8 2v.09a2.46 2.46 0 0 0 2.33 4.3 6.13 6.13 0 0 0-5.26-11.07h-.07l-.05-.11a10 10 0 0 0-3.56 15.63 15.8 15.8 0 0 0 25.46-2.22 25.14 25.14 0 0 0-15.91-37.16v-.12a39.84 39.84 0 0 0-24.76 2.19z" fill="#0070ba" fill-rule="evenodd" style="isolation:isolate"/></svg>