<svg id="Layer_1" data-name="Layer 1" xmlns="http://www.w3.org/2000/svg" viewBox="0 0 715.14 476.93"><defs><style>.cls-1{fill:#0068b4;}</style></defs><title>BM pion blue</title><path class="cls-1" d="M108.58,217.45V108.78h40a76.15,76.15,0,0,1,19.17,2.08,36.56,36.56,0,0,1,12.9,5.9,22.35,22.35,0,0,1,7.28,9.25,31.35,31.35,0,0,1,2.27,12.15,24,24,0,0,1-1,7.05,20.62,20.62,0,0,1-3.29,6.38,24.46,24.46,0,0,1-5.74,5.41,37.24,37.24,0,0,1-8.43,4.21q10.74,2.61,15.89,8.47t5.15,15a31.09,31.09,0,0,1-2.69,12.9,29.39,29.39,0,0,1-7.87,10.4A37.32,37.32,0,0,1,169.37,215a55.48,55.48,0,0,1-17.38,2.5Zm25.21-62.95h13.13a43,43,0,0,0,7.53-.6,15.63,15.63,0,0,0,5.71-2.09,9.53,9.53,0,0,0,3.58-4.1,15.39,15.39,0,0,0,1.23-6.56,18.43,18.43,0,0,0-1-6.46,9.26,9.26,0,0,0-3-4.13,12.55,12.55,0,0,0-5.11-2.24,35,35,0,0,0-7.35-.67H133.79Zm0,16.85v27.08h17.75a22.13,22.13,0,0,0,8.17-1.27,12.87,12.87,0,0,0,5-3.28,11,11,0,0,0,2.46-4.55,19.94,19.94,0,0,0,.67-5.15,17.23,17.23,0,0,0-.78-5.37,9,9,0,0,0-2.68-4,13.25,13.25,0,0,0-5-2.53,29.16,29.16,0,0,0-7.9-.9Z"/><path class="cls-1" d="M236.65,197.31h40.27v20.14H211.44V108.78h25.21Z"/><path class="cls-1" d="M335.85,197.53a23.16,23.16,0,0,0,9.06-1.67,18.44,18.44,0,0,0,6.75-4.81,21.28,21.28,0,0,0,4.21-7.65,33.4,33.4,0,0,0,1.46-10.26V108.78h25.21v64.36a50.11,50.11,0,0,1-3.25,18.35,41.24,41.24,0,0,1-9.28,14.4,41.94,41.94,0,0,1-14.7,9.4,58.46,58.46,0,0,1-39,0,42,42,0,0,1-14.69-9.4,40.75,40.75,0,0,1-9.25-14.4,50.74,50.74,0,0,1-3.21-18.35V108.78h25.22v64.29a33.41,33.41,0,0,0,1.45,10.26A21.68,21.68,0,0,0,320,191a18.2,18.2,0,0,0,6.75,4.85A23.17,23.17,0,0,0,335.85,197.53Z"/><path class="cls-1" d="M475.17,108.78v19.39h-44.6v25.36h34.16v18.64H430.57v25.89h44.6v19.39h-70V108.78Z"/><path class="cls-1" d="M167,324.67c.92,2,1.8,4.12,2.65,6.26.84-2.19,1.73-4.32,2.65-6.41s1.9-4.08,2.94-6l27.9-54.9a9.23,9.23,0,0,1,1.53-2.2,5,5,0,0,1,1.75-1.15,7.34,7.34,0,0,1,2.2-.45c.82-.05,1.78-.07,2.87-.07h19.25V368.45H208.53V305.94q0-4.54.45-9.84L180.19,352a9.59,9.59,0,0,1-3.62,3.95,10.08,10.08,0,0,1-5.19,1.34H168a10,10,0,0,1-5.18-1.34,9.52,9.52,0,0,1-3.62-3.95l-28.94-56c.2,1.75.35,3.47.45,5.19s.15,3.29.15,4.73v62.51H108.58V259.78h19.25c1.09,0,2,0,2.87.07a7.34,7.34,0,0,1,2.2.45,5.07,5.07,0,0,1,1.75,1.15,9.52,9.52,0,0,1,1.53,2.2l28,55.12Q165.64,321.61,167,324.67Z"/><path class="cls-1" d="M324.73,259.78v19.39h-44.6v25.36h34.16v18.64H280.13v25.89h44.6v19.39h-70V259.78Z"/><path class="cls-1" d="M441.83,314.07a57,57,0,0,1-4.06,21.75,50.91,50.91,0,0,1-11.45,17.23,51.83,51.83,0,0,1-17.79,11.33,62.91,62.91,0,0,1-23.08,4.07H343.23V259.78h42.22a62.3,62.3,0,0,1,23.08,4.1,52.45,52.45,0,0,1,17.79,11.34,50.45,50.45,0,0,1,11.45,17.19A56.77,56.77,0,0,1,441.83,314.07Zm-25.8,0a47.4,47.4,0,0,0-2.09-14.54,31,31,0,0,0-6-11,26.2,26.2,0,0,0-9.59-6.94,32.64,32.64,0,0,0-12.9-2.42H368.59v69.89h16.86a32.47,32.47,0,0,0,12.9-2.43,26.17,26.17,0,0,0,9.59-6.93,31.06,31.06,0,0,0,6-11A47.61,47.61,0,0,0,416,314.07Z"/><path class="cls-1" d="M485.09,368.45H459.73V259.78h25.36Z"/><path class="cls-1" d="M606.59,368.45H587.05a8.5,8.5,0,0,1-5.29-1.53A9.56,9.56,0,0,1,578.7,363l-6.42-18.94H531L524.55,363a9,9,0,0,1-2.95,3.77,8.22,8.22,0,0,1-5.26,1.68H496.65l42.07-108.67h25.81ZM536.78,326.9h29.69l-10-29.76q-1.11-2.83-2.39-6.67c-.84-2.56-1.69-5.33-2.53-8.32q-1.2,4.56-2.43,8.43c-.82,2.59-1.6,4.82-2.35,6.71Z"/></svg>