<svg width="523px" height="314px" viewBox="0 0 523 314" version="1.1" xmlns="http://www.w3.org/2000/svg">
    <title>Artboard</title>
    <g id="Artboard" stroke="none" stroke-width="1" fill="none" fill-rule="evenodd">
        <g id="blue-media" transform="translate(28.000000, 32.000000)" fill="#0068B4" fill-rule="nonzero">
            <g id="Group">
                <path d="M0,102.945871 L0,0.012840833 L38.0043056,0.012840833 C44.1347059,-0.102496794 50.2549476,0.55953992 56.2178691,1.98303227 C60.6301237,3.0302745 64.7939476,4.92884592 68.4742577,7.57155605 C71.523738,9.82347337 73.9121734,12.8489662 75.3910413,16.3332247 C76.8689038,19.9887134 77.6020658,23.9009278 77.5477857,27.8417949 C77.5659056,30.102448 77.2456795,32.353151 76.597678,34.5196072 C75.9181498,36.7007098 74.8601703,38.7460913 73.4718239,40.5627905 C71.9439979,42.55381 70.1021832,44.2844374 68.018206,45.6871827 C65.5285374,47.3491642 62.8371959,48.6891358 60.0087986,49.6749259 C66.8115693,51.3230668 71.8439728,53.9973491 75.106009,57.6977728 C78.3680453,61.3981964 79.9990634,66.1342335 79.9990634,71.9058841 C80.032677,76.1141492 79.1611741,80.2807179 77.4432738,84.1248598 C75.7223117,87.9253665 73.1669516,91.2919005 69.9659267,93.975817 C66.376651,96.9742679 62.2271701,99.2342241 57.7570435,100.625213 C52.4137365,102.283422 46.8396516,103.082771 41.2441727,102.993232 L0,102.945871 Z M23.9522136,43.3191641 L36.427127,43.3191641 C38.8240026,43.3393222 41.2180078,43.1491471 43.5814375,42.7508397 C45.5023637,42.4513739 47.3456083,41.7787606 49.0065521,40.7711762 C50.4949334,39.8338426 51.6769471,38.4842721 52.4079375,36.8876257 C53.2487142,34.9265601 53.6476382,32.8054598 53.5765699,30.673945 C53.6281262,28.5941449 53.3063634,26.5219022 52.6264622,24.5549851 C52.0627533,23.0105187 51.0751163,21.6550221 49.7761393,20.6430185 C48.3379812,19.5815466 46.6786293,18.8563798 44.9210893,18.5212738 C42.6222659,18.0649588 40.2814913,17.8522334 37.9377981,17.8866449 L23.9522136,17.8866449 L23.9522136,43.3191641 Z M23.9522136,59.2796092 L23.9522136,84.9299861 L40.8166243,84.9299861 C43.4569113,85.018724 46.090324,84.6106181 48.5790037,83.7270327 C50.3852278,83.0776231 52.012666,82.0132825 53.3295419,80.6201923 C54.4411652,79.3892243 55.2424028,77.9117841 55.6668067,76.3103986 C56.0913987,74.7189783 56.3054041,73.0790329 56.3033788,71.4322804 C56.3273874,69.7083982 56.0772582,67.9916112 55.5622949,66.3457765 C55.07443,64.8757282 54.1941649,63.5659102 53.0160064,62.5569468 C51.6219727,61.4296276 50.0022425,60.6125459 48.2654682,60.1605121 C45.8142959,59.5360236 43.2888748,59.2491956 40.7596178,59.3080254 L23.9522136,59.2796092 Z" id="Shape"></path>
                <polygon id="Path" points="121.870189 83.910831 160 83.910831 160 103 98 103 98 0 121.870189 0"></polygon>
                <path d="M215.999936,84.017474 C218.922404,84.0701671 221.825631,83.5325498 224.537334,82.4365255 C226.974027,81.4232606 229.149183,79.8660921 230.897977,77.883015 C232.704446,75.7704405 234.055265,73.3045114 234.865135,70.6409455 C235.823955,67.4949444 236.288136,64.2178748 236.240918,60.9280521 L236.240918,0 L259.996745,0 L259.996745,60.9280521 C260.066077,66.8599925 259.027273,72.7523683 256.934213,78.2995524 C255.00126,83.4084368 252.02209,88.0526681 248.189505,91.9316834 C244.244193,95.8407352 239.524715,98.8725898 234.337437,100.830436 C222.448442,105.056521 209.476045,105.056521 197.58705,100.830436 C192.403892,98.8698938 187.688023,95.8382952 183.744405,91.9316834 C179.91112,88.0587568 176.940122,83.4122451 175.027967,78.2995524 C172.961194,72.7462128 171.935633,66.8564698 172.003127,60.9280521 L172.003127,0 L195.768377,0 L195.768377,60.8617848 C195.718261,64.1511009 196.179258,67.4281357 197.134738,70.5746782 C197.940913,73.2376582 199.277837,75.7080724 201.064202,77.8356813 C202.803514,79.8385421 204.980494,81.4099766 207.424846,82.4270587 C210.147681,83.5310729 213.064202,84.0719977 215.999936,84.017474 Z" id="Path"></path>
                <polygon id="Path" points="348 0 348 18.3783013 305.948571 18.3783013 305.948571 42.41511 338.156571 42.41511 338.156571 60.0825435 305.948571 60.0825435 305.948571 84.6216987 348 84.6216987 348 103 282 103 282 0"></polygon>
                <path d="M55.4741323,204.515731 C56.3477407,206.410856 57.1833661,208.419687 57.9905043,210.44747 C58.7881467,208.372309 59.6332678,206.354002 60.5068762,204.373597 C61.3804846,202.393192 62.3110675,200.507544 63.2986248,198.688224 L89.7917485,146.667065 C90.1718294,145.905361 90.6612693,145.203083 91.2445972,144.582429 C91.7152282,144.106224 92.281565,143.734848 92.9063523,143.492732 C93.576668,143.244517 94.2812662,143.1007 94.9954158,143.066329 C95.7740668,143.018951 96.6856582,143 97.7206942,143 L116,143 L116,246 L94.9099542,246 L94.9099542,186.767893 C94.9099542,183.899939 95.0523903,180.791935 95.3372626,177.443882 L67.9990177,230.412603 C67.2328223,231.960779 66.0404612,233.259079 64.5615586,234.155474 C63.0637413,235.014806 61.3607634,235.453564 59.6332678,235.425207 L56.4237066,235.425207 C54.6989685,235.45565 52.9984986,235.016692 51.5049116,234.155474 C50.0236368,233.261965 48.8305598,231.962886 48.0674525,230.412603 L20.5867714,177.349126 C20.7766863,179.00736 20.9191225,180.637167 21.0140799,182.266973 C21.1090373,183.89678 21.156516,185.384453 21.156516,186.748942 L21.156516,245.981049 L0,245.981049 L0,143.028427 L18.2793058,143.028427 C19.3143418,143.028427 20.1784545,143.028427 21.0045842,143.094756 C21.7187338,143.129127 22.423332,143.272944 23.0936477,143.521159 C23.7175212,143.765041 24.28351,144.136189 24.7554028,144.610856 C25.3357597,145.233904 25.8248871,145.935734 26.2082515,146.695492 L52.7963327,198.925115 C53.720585,200.719166 54.6131849,202.582705 55.4741323,204.515731 Z" id="Path"></path>
                <polygon id="Path" points="205 143 205 161.378301 162.948571 161.378301 162.948571 185.41511 195.156571 185.41511 195.156571 203.082543 162.948571 203.082543 162.948571 227.621699 205 227.621699 205 246 139 246 139 143"></polygon>
                <path d="M315.996875,194.457576 C316.072593,201.513982 314.771661,208.51693 312.167592,215.070693 C309.717957,221.199128 306.042304,226.756984 301.368259,231.400072 C296.566785,236.097085 290.855534,239.752007 284.589208,242.137847 C277.637563,244.782348 270.253308,246.090802 262.820771,245.995106 L223,245.995106 L223,143.005342 L262.820771,143.005342 C270.256238,142.904834 277.643119,144.2234 284.589208,146.891033 C290.84891,149.294537 296.557384,152.950907 301.368259,157.638285 C306.047633,162.262305 309.724452,167.809018 312.167592,173.929755 C314.766166,180.455345 316.0671,187.429325 315.996875,194.457576 Z M291.663007,194.457576 C291.722549,189.789226 291.057487,185.140082 289.691775,180.677589 C288.531289,176.851749 286.605613,173.304289 284.032736,170.252565 C281.556572,167.395485 278.462597,165.14565 274.987705,163.675322 C271.128445,162.090898 266.989127,161.310624 262.820771,161.381817 L246.918872,161.381817 L246.918872,227.618631 L262.820771,227.618631 C266.990157,227.69133 271.130396,226.907657 274.987705,225.315648 C278.462158,223.84894 281.556238,221.60227 284.032736,218.747883 C286.604298,215.695253 288.529819,212.148079 289.691775,208.322859 C291.053487,203.830844 291.709024,199.152769 291.634712,194.457576 L291.663007,194.457576 Z" id="Shape"></path>
                <polygon id="Path" points="357 246 333 246 333 143 357 143"></polygon>
                <path d="M472,245.990586 L453.515736,245.990586 C451.733282,246.076975 449.972789,245.566846 448.511552,244.540548 C447.236438,243.579684 446.237759,242.297942 445.616882,240.825419 L439.543751,222.875279 L400.494088,222.875279 L394.392578,240.825419 C393.801373,242.24696 392.837057,243.481625 391.601965,244.398388 C390.176231,245.488062 388.418393,246.050549 386.62616,245.990586 L368,245.990586 L407.79698,143 L432.21248,143 L472,245.990586 Z M405.961797,206.612111 L434.047662,206.612111 L424.587957,178.407456 C423.887939,176.619393 423.134316,174.512257 422.327088,172.08605 C421.532472,169.659843 420.728397,167.034612 419.933782,164.200878 C419.177006,167.081999 418.41077,169.74514 417.635074,172.190301 C416.859378,174.64494 416.121521,176.758394 415.412043,178.549617 L405.961797,206.612111 Z" id="Shape"></path>
            </g>
        </g>
    </g>
</svg>
